<svg width="32" height="28" viewBox="0 0 32 28" fill="none" xmlns="http://www.w3.org/2000/svg">
<path d="M14.7188 24.457H29.4375C31.2891 24.457 31.9453 23.9297 31.9453 22.8984C31.9453 19.875 28.1602 15.7031 22.0781 15.7031C16.0078 15.7031 12.2227 19.875 12.2227 22.8984C12.2227 23.9297 12.8789 24.457 14.7188 24.457ZM22.0898 13.6055C24.5977 13.6055 26.7656 11.3555 26.7656 8.42578C26.7656 5.53125 24.5859 3.38672 22.0898 3.38672C19.582 3.38672 17.3906 5.57812 17.4023 8.44922C17.4023 11.3555 19.5703 13.6055 22.0898 13.6055ZM2.0625 24.457H10.957C9.73828 22.6875 11.2266 19.125 13.7578 17.1797C12.4453 16.3125 10.7695 15.668 8.58984 15.668C3.30469 15.668 0 19.5703 0 22.8164C0 23.8711 0.574219 24.457 2.0625 24.457ZM8.58984 13.875C10.7812 13.875 12.668 11.9062 12.668 9.36328C12.668 6.84375 10.7695 4.98047 8.58984 4.98047C6.42188 4.98047 4.5 6.89062 4.51172 9.38672C4.51172 11.9062 6.41016 13.875 8.58984 13.875Z" fill="black"/>
</svg>
