<svg xmlns="http://www.w3.org/2000/svg" width="111" height="108" viewBox="0 0 111 108">
  <g id="Group_109" data-name="Group 109" transform="translate(-42 -245)">
    <ellipse id="Ellipse_5" data-name="Ellipse 5" cx="55.5" cy="54" rx="55.5" ry="54" transform="translate(42 245)" fill="#fff"/>
    <g id="Group_108" data-name="Group 108">
      <text id="Visit" transform="translate(77 338)" fill="#b31b1b" font-size="20" font-family="Palatino-Roman, Palatino"><tspan x="0" y="0">Visit</tspan></text>
      <g id="Group_101" data-name="Group 101" transform="translate(66.283 259)">
        <g id="Group_1" data-name="Group 1">
          <path id="Path_1" data-name="Path 1" d="M30.716,61.435A30.717,30.717,0,1,1,61.434,30.716,30.752,30.752,0,0,1,30.716,61.435Zm0-60A29.282,29.282,0,1,0,60,30.716,29.314,29.314,0,0,0,30.716,1.435Z" fill="#b31b1b"/>
        </g>
        <g id="Group_2" data-name="Group 2" transform="translate(7.646 7.646)">
          <path id="Path_2" data-name="Path 2" d="M30.716,53.788A23.071,23.071,0,1,1,53.788,30.716,23.1,23.1,0,0,1,30.716,53.788Zm0-44.718A21.646,21.646,0,1,0,52.363,30.716,21.67,21.67,0,0,0,30.716,9.07Z" transform="translate(-7.646 -7.646)" fill="#b31b1b"/>
        </g>
        <g id="Group_3" data-name="Group 3" transform="translate(16.042 15.168)">
          <path id="Path_3" data-name="Path 3" d="M30.726,52.262l-.286-.123c-.588-.252-14.4-6.3-14.4-17.269l0-19.7,29.323,0,0,20.05c0,10.513-13.773,16.662-14.36,16.919ZM17.479,16.606l0,18.264c0,9.209,11.289,14.9,13.243,15.82,1.951-.93,13.216-6.684,13.216-15.472l0-18.615Z" transform="translate(-16.042 -15.168)" fill="#b31b1b"/>
        </g>
        <g id="Group_4" data-name="Group 4" transform="translate(19.988 17.311)">
          <path id="Path_4" data-name="Path 4" d="M24.248,26.706l-.35-.2c-.063-.037-1.563-.917-2.569-1.591A2.518,2.518,0,0,1,20,23.069c-.009-.113-.011-1.807-.008-5.042v-.716h8.583v.715c.008,3.237.007,4.933,0,5.04a2.363,2.363,0,0,1-1.265,1.845c-1.015.68-2.635,1.564-2.7,1.6Zm-2.825-7.961c0,1.818,0,4.058,0,4.229.01.138.2.409.7.744.685.459,1.638,1.035,2.146,1.337.533-.3,1.551-.877,2.235-1.336.188-.126.623-.444.631-.7.007-.219.006-2.461,0-4.275Z" transform="translate(-19.988 -17.311)" fill="#b31b1b"/>
        </g>
        <g id="Group_5" data-name="Group 5" transform="translate(33.251 17.276)">
          <path id="Path_5" data-name="Path 5" d="M37.509,26.671l-.349-.2c-.063-.037-1.561-.915-2.566-1.589a2.528,2.528,0,0,1-1.334-1.841c-.009-.11-.011-1.806-.007-5.043v-.717h8.581l0,.716c.007,3.237.006,4.934,0,5.041a2.354,2.354,0,0,1-1.263,1.844c-1.016.681-2.637,1.563-2.706,1.6Zm-2.822-7.96c0,1.814,0,4.052,0,4.227.011.139.2.411.7.748.684.458,1.635,1.033,2.142,1.335.533-.3,1.552-.877,2.237-1.336.187-.125.623-.444.629-.7.008-.219.006-2.463,0-4.277Z" transform="translate(-33.251 -17.276)" fill="#b31b1b"/>
        </g>
        <g id="Group_6" data-name="Group 6" transform="translate(16.155 27.212)">
          <rect id="Rectangle_1" data-name="Rectangle 1" width="28.7" height="1.42" fill="#b31b1b"/>
        </g>
        <g id="Group_7" data-name="Group 7" transform="translate(22.267 30.318)">
          <path id="Path_6" data-name="Path 6" d="M30.679,44.681a1.163,1.163,0,0,1-.908-.524.527.527,0,0,0-.5-.262c-.781,0-1.354.052-2.016.112s-1.386.126-2.432.15-1.839-.02-1.874-.022l-.677-.038,0-13.442.7-.016c.216,0,.462-.006.755,0,.415,0,.92,0,1.556-.014.49-.012,1.064-.073,1.729-.144.383-.041.8-.085,1.238-.125a6.277,6.277,0,0,1,1.8.075,2.948,2.948,0,0,1,.657.234,2.819,2.819,0,0,1,.645-.23,6.273,6.273,0,0,1,1.833-.077c.429.038.842.082,1.228.123.662.071,1.235.132,1.722.144.637.015,1.143.013,1.556.014.291,0,.539,0,.755,0l.7.016,0,13.443-.677.037c-.034,0-.835.046-1.873.022s-1.783-.091-2.432-.15a19.093,19.093,0,0,0-2.056-.112c-.28,0-.359.089-.529.286A1.181,1.181,0,0,1,30.679,44.681ZM29.266,42.46a1.954,1.954,0,0,1,1.424.569,1.956,1.956,0,0,1,1.461-.569c.844,0,1.476.058,2.144.118s1.337.122,2.335.145c.41.009.785.007,1.082,0l0-10.656h-.3c-.368,0-.8,0-1.315-.014-.547-.014-1.147-.078-1.841-.152-.378-.041-.783-.084-1.219-.123a5.121,5.121,0,0,0-1.381.051.84.84,0,0,0-.494.248l-.421-.226-.442.255h0a1.105,1.105,0,0,0-.564-.283h0a5.084,5.084,0,0,0-1.346-.048c-.45.041-.854.084-1.23.124-.7.075-1.3.139-1.848.153-.651.014-1.169.014-1.591.013H23.7l0,10.656c.3.005.672.008,1.083,0,1-.023,1.677-.085,2.334-.145S28.42,42.46,29.266,42.46Z" transform="translate(-22.267 -30.318)" fill="#b31b1b"/>
        </g>
        <g id="Group_8" data-name="Group 8" transform="translate(20.71 20.114)">
          <rect id="Rectangle_2" data-name="Rectangle 2" width="7.095" height="1.193" fill="#b31b1b"/>
        </g>
        <g id="Group_9" data-name="Group 9" transform="translate(20.71 19.994)">
          <rect id="Rectangle_3" data-name="Rectangle 3" width="7.095" height="1.435" fill="#b31b1b"/>
        </g>
        <g id="Group_10" data-name="Group 10" transform="translate(30.062 27.466)">
          <rect id="Rectangle_4" data-name="Rectangle 4" width="1.193" height="24.134" fill="#b31b1b"/>
        </g>
        <g id="Group_11" data-name="Group 11" transform="translate(30.121 27.466)">
          <rect id="Rectangle_5" data-name="Rectangle 5" width="1.075" height="24.134" fill="#b31b1b"/>
        </g>
        <g id="Group_12" data-name="Group 12" transform="translate(33.823 19.15)">
          <path id="Path_7" data-name="Path 7" d="M40.566,22.7l-3.152-2.1-2.892,2.088-.7-.968,3.563-2.574,3.841,2.561Z" transform="translate(-33.823 -19.15)" fill="#b31b1b"/>
        </g>
        <g id="Group_13" data-name="Group 13" transform="translate(33.854 19.004)">
          <path id="Path_8" data-name="Path 8" d="M40.6,22.8,37.516,20.75l-2.823,2.04-.84-1.163L37.483,19l3.912,2.607Z" transform="translate(-33.854 -19.004)" fill="#b31b1b"/>
        </g>
        <g id="Group_14" data-name="Group 14" transform="translate(32.606 33.267)">
          <path id="Path_9" data-name="Path 9" d="M36.365,34.228l-1.807-.049c-.287-.006-.617-.041-1-.082l-.61-.063a2.064,2.064,0,0,0-.318-.01l-.026-.754a2.74,2.74,0,0,1,.419.014l.616.063c.357.038.665.072.936.078l1.805.049Z" transform="translate(-32.606 -33.267)" fill="#b31b1b"/>
        </g>
        <g id="Group_15" data-name="Group 15" transform="translate(32.606 35.569)">
          <path id="Path_10" data-name="Path 10" d="M36.366,36.526l-1.805-.044c-.287-.007-.611-.041-.986-.081-.194-.021-.4-.043-.625-.064a2.073,2.073,0,0,0-.318-.012l-.026-.754a3.045,3.045,0,0,1,.418.016c.222.02.434.043.631.064.351.037.656.071.922.077l1.8.044Z" transform="translate(-32.606 -35.57)" fill="#b31b1b"/>
        </g>
        <g id="Group_16" data-name="Group 16" transform="translate(32.606 37.873)">
          <path id="Path_11" data-name="Path 11" d="M36.368,38.83c-.146,0-.485-.012-.857-.022l-.952-.025c-.279-.005-.6-.039-.966-.078-.2-.021-.412-.044-.642-.064a1.986,1.986,0,0,0-.319-.013l-.026-.753a3.036,3.036,0,0,1,.418.015c.228.02.446.043.648.065.344.036.641.069.9.074l.957.025.847.022Z" transform="translate(-32.606 -37.873)" fill="#b31b1b"/>
        </g>
        <g id="Group_17" data-name="Group 17" transform="translate(32.606 40.175)">
          <path id="Path_12" data-name="Path 12" d="M36.366,41.133l-1.808-.047c-.286-.006-.614-.041-.993-.082l-.615-.062a1.847,1.847,0,0,0-.318-.012l-.026-.754a3.388,3.388,0,0,1,.418.015c.219.02.427.043.622.063.355.038.662.072.931.079l1.8.046Z" transform="translate(-32.606 -40.175)" fill="#b31b1b"/>
        </g>
        <g id="Group_18" data-name="Group 18" transform="translate(24.998 33.249)">
          <path id="Path_13" data-name="Path 13" d="M25.014,34.208,25,33.455c.275-.006,1.236-.032,1.805-.047.276-.006.588-.04.949-.078l.609-.062a2.843,2.843,0,0,1,.387-.018L28.734,34a2.549,2.549,0,0,0-.294.014l-.607.062c-.387.041-.721.076-1.013.082C26.254,34.177,25.29,34.2,25.014,34.208Z" transform="translate(-24.998 -33.25)" fill="#b31b1b"/>
        </g>
        <g id="Group_19" data-name="Group 19" transform="translate(24.997 35.554)">
          <path id="Path_14" data-name="Path 14" d="M25.015,36.511,25,35.757,26.8,35.71c.272-.006.581-.04.939-.079l.618-.064a3.319,3.319,0,0,1,.393-.011l-.027.754a2.024,2.024,0,0,0-.3.009l-.6.062c-.383.041-.713.077-1,.083Z" transform="translate(-24.997 -35.554)" fill="#b31b1b"/>
        </g>
        <g id="Group_20" data-name="Group 20" transform="translate(25 37.855)">
          <path id="Path_15" data-name="Path 15" d="M25.011,38.81,25,38.056c.275,0,1.235-.031,1.8-.047.269,0,.568-.036.913-.073.2-.021.416-.044.648-.064a2.539,2.539,0,0,1,.387-.015l-.018.754a2.309,2.309,0,0,0-.294.012c-.236.02-.447.043-.643.064-.372.039-.694.072-.977.076C26.253,38.779,25.288,38.806,25.011,38.81Z" transform="translate(-25 -37.855)" fill="#b31b1b"/>
        </g>
        <g id="Group_21" data-name="Group 21" transform="translate(25 40.156)">
          <path id="Path_16" data-name="Path 16" d="M25.011,41.116,25,40.362c.219,0,.872-.022,1.415-.037l.388-.011c.273-.006.582-.04.941-.079l.617-.063a2.772,2.772,0,0,1,.385-.015l-.014.754a2.46,2.46,0,0,0-.293.011l-.614.063c-.383.042-.714.077-1,.083l-.386.011C25.889,41.1,25.231,41.113,25.011,41.116Z" transform="translate(-25 -40.156)" fill="#b31b1b"/>
        </g>
        <g id="Group_93" data-name="Group 93" transform="translate(2.398 2.593)">
          <g id="Group_22" data-name="Group 22" transform="translate(18.461 29.973)">
            <rect id="Rectangle_6" data-name="Rectangle 6" width="1.562" height="1.716" fill="#b31b1b"/>
          </g>
          <g id="Group_23" data-name="Group 23" transform="translate(18.461 33.941)">
            <rect id="Rectangle_7" data-name="Rectangle 7" width="1.646" height="1.717" fill="#b31b1b"/>
          </g>
          <g id="Group_24" data-name="Group 24" transform="translate(18.461 37.491)">
            <rect id="Rectangle_8" data-name="Rectangle 8" width="1.562" height="1.71" fill="#b31b1b"/>
          </g>
          <g id="Group_25" data-name="Group 25" transform="translate(36.443 30.313)">
            <rect id="Rectangle_9" data-name="Rectangle 9" width="1.563" height="1.712" fill="#b31b1b"/>
          </g>
          <g id="Group_26" data-name="Group 26" transform="translate(36.443 34.279)">
            <rect id="Rectangle_10" data-name="Rectangle 10" width="1.646" height="1.716" fill="#b31b1b"/>
          </g>
          <g id="Group_27" data-name="Group 27" transform="translate(36.443 37.827)">
            <rect id="Rectangle_11" data-name="Rectangle 11" width="1.563" height="1.714" fill="#b31b1b"/>
          </g>
          <g id="Group_92" data-name="Group 92">
            <g id="Group_29" data-name="Group 29" transform="translate(0 24.928)">
              <g id="Group_28" data-name="Group 28">
                <path id="Path_17" data-name="Path 17" d="M6.605,27.764a4.024,4.024,0,0,1,.072.936,1.971,1.971,0,0,1-2.2,2.1A2.038,2.038,0,0,1,2.4,28.433a2.736,2.736,0,0,1,.229-.912l.7.1a1.655,1.655,0,0,0-.275.867,1.374,1.374,0,0,0,1.412,1.459,1.352,1.352,0,0,0,1.558-1.29,2.237,2.237,0,0,0-.115-.9Z" transform="translate(-2.398 -27.521)" fill="#b31b1b"/>
              </g>
            </g>
            <g id="Group_31" data-name="Group 31" transform="translate(0.877 19.212)">
              <g id="Group_30" data-name="Group 30">
                <path id="Path_18" data-name="Path 18" d="M3.374,23.257a1.921,1.921,0,0,1,2.592-1.341,2.005,2.005,0,1,1-1.093,3.848A1.906,1.906,0,0,1,3.374,23.257Zm3.488.992c.228-.8-.411-1.309-1.13-1.512-.7-.2-1.511-.083-1.733.7s.4,1.306,1.107,1.5S6.633,25.053,6.862,24.249Z" transform="translate(-3.275 -21.805)" fill="#b31b1b"/>
              </g>
            </g>
            <g id="Group_33" data-name="Group 33" transform="translate(2.62 14.274)">
              <g id="Group_32" data-name="Group 32">
                <path id="Path_19" data-name="Path 19" d="M5.018,18.977l.415-.778c.41-.774.876-1.712,1.892-1.171a.941.941,0,0,1,.451,1.193l.01.008c.12-.19.38-.2.581-.182l1.735.182-.428.805L8.3,18.86c-.328-.042-.481-.005-.643.3l-.123.233,1.516.809-.384.723Zm1.942.109.127-.238c.19-.356.355-.792-.1-1.034-.44-.234-.69.15-.883.51l-.126.237Z" transform="translate(-5.018 -16.868)" fill="#b31b1b"/>
              </g>
            </g>
            <g id="Group_35" data-name="Group 35" transform="translate(5.415 9.075)">
              <g id="Group_34" data-name="Group 34">
                <path id="Path_20" data-name="Path 20" d="M7.813,14.251l.643-.773,3.374.777.007-.009L9.456,12.272l.5-.6L13.14,14.31l-.637.768-3.379-.773-.007.009L11.5,16.29l-.5.6Z" transform="translate(-7.813 -11.668)" fill="#b31b1b"/>
              </g>
            </g>
            <g id="Group_37" data-name="Group 37" transform="translate(9.56 5.645)">
              <g id="Group_36" data-name="Group 36">
                <path id="Path_21" data-name="Path 21" d="M11.958,9.757l1.866-1.519.412.505L13,9.745l.645.792,1.129-.921.412.506-1.13.92.734.9,1.242-1.012.411.506-1.876,1.528Z" transform="translate(-11.958 -8.238)" fill="#b31b1b"/>
              </g>
            </g>
            <g id="Group_39" data-name="Group 39" transform="translate(13.619 3.777)">
              <g id="Group_38" data-name="Group 38">
                <path id="Path_22" data-name="Path 22" d="M16.017,6.773l.714-.4,1.71,3.037L19.82,8.63l.32.569-2.095,1.178Z" transform="translate(-16.017 -6.37)" fill="#b31b1b"/>
              </g>
            </g>
            <g id="Group_41" data-name="Group 41" transform="translate(17.821 1.794)">
              <g id="Group_40" data-name="Group 40">
                <path id="Path_23" data-name="Path 23" d="M20.219,4.666l.77-.279,1.185,3.275,1.489-.537.224.612-2.26.818Z" transform="translate(-20.219 -4.387)" fill="#b31b1b"/>
              </g>
            </g>
            <g id="Group_43" data-name="Group 43" transform="translate(24.416)">
              <g id="Group_42" data-name="Group 42">
                <path id="Path_24" data-name="Path 24" d="M26.814,2.868l.817-.067.195,2.382c.058.7.319,1.145.944,1.093s.805-.531.746-1.232l-.2-2.385.817-.066.218,2.635c.092,1.105-.488,1.611-1.531,1.7s-1.7-.318-1.79-1.423Z" transform="translate(-26.814 -2.593)" fill="#b31b1b"/>
              </g>
            </g>
            <g id="Group_45" data-name="Group 45" transform="translate(29.994 0.066)">
              <g id="Group_44" data-name="Group 44">
                <path id="Path_25" data-name="Path 25" d="M32.944,2.659l1,.136L35.067,6.07l.013,0L35.492,3l.778.105-.554,4.1-.99-.133L33.593,3.8h-.012l-.412,3.064-.777-.1Z" transform="translate(-32.392 -2.659)" fill="#b31b1b"/>
              </g>
            </g>
            <g id="Group_47" data-name="Group 47" transform="translate(35.171 1.19)">
              <g id="Group_46" data-name="Group 46">
                <path id="Path_26" data-name="Path 26" d="M38.808,3.783l.78.245L38.35,7.976l-.781-.246Z" transform="translate(-37.569 -3.783)" fill="#b31b1b"/>
              </g>
            </g>
            <g id="Group_49" data-name="Group 49" transform="translate(38.706 2.169)">
              <g id="Group_48" data-name="Group 48">
                <path id="Path_27" data-name="Path 27" d="M41.717,4.762l.784.4L41.969,8.53l.011.005L44.369,6.1l.725.365L42,9.542l-.9-.453Z" transform="translate(-41.104 -4.762)" fill="#b31b1b"/>
              </g>
            </g>
            <g id="Group_51" data-name="Group 51" transform="translate(42.137 5.222)">
              <g id="Group_50" data-name="Group 50">
                <path id="Path_28" data-name="Path 28" d="M47.081,7.815l1.9,1.485-.4.512-1.252-.979-.628.8,1.145.9-.4.515-1.146-.9-.716.915,1.262.987-.4.514-1.906-1.491Z" transform="translate(-44.535 -7.815)" fill="#b31b1b"/>
              </g>
            </g>
            <g id="Group_53" data-name="Group 53" transform="translate(45.381 8.496)">
              <g id="Group_52" data-name="Group 52">
                <path id="Path_29" data-name="Path 29" d="M50.891,11.089l.582.662c.578.66,1.29,1.426.426,2.186a.944.944,0,0,1-1.277,0l-.01.007a.605.605,0,0,1-.034.606l-.785,1.56-.6-.686.647-1.222c.155-.291.176-.447-.053-.706l-.172-.2L48.32,14.431l-.541-.614ZM50.1,12.868l.176.2c.266.3.616.611,1,.27s.1-.7-.165-1l-.178-.2Z" transform="translate(-47.779 -11.089)" fill="#b31b1b"/>
              </g>
            </g>
            <g id="Group_55" data-name="Group 55" transform="translate(48.371 13.076)">
              <g id="Group_54" data-name="Group 54">
                <path id="Path_30" data-name="Path 30" d="M54.753,17.649a2.115,2.115,0,0,0-.27-.805.572.572,0,0,0-.822-.262c-.618.366.553,1.752-.64,2.458-.78.462-1.437.027-1.856-.681a3.558,3.558,0,0,1-.4-.981l.681-.317a1.974,1.974,0,0,0,.251.925c.159.268.507.543.828.351.681-.4-.513-1.773.667-2.47a1.253,1.253,0,0,1,1.812.585,3.047,3.047,0,0,1,.37.914Z" transform="translate(-50.769 -15.669)" fill="#b31b1b"/>
              </g>
            </g>
            <g id="Group_57" data-name="Group 57" transform="translate(50.337 17.115)">
              <g id="Group_56" data-name="Group 56">
                <path id="Path_31" data-name="Path 31" d="M56.566,19.708l.31.758-3.832,1.563-.309-.757Z" transform="translate(-52.735 -19.708)" fill="#b31b1b"/>
              </g>
            </g>
            <g id="Group_59" data-name="Group 59" transform="translate(51.495 19.92)">
              <g id="Group_58" data-name="Group 58">
                <path id="Path_32" data-name="Path 32" d="M57.277,23.8,57,22.668l.634-.155.755,3.066-.633.156-.28-1.137-3.384.834-.2-.8Z" transform="translate(-53.893 -22.513)" fill="#b31b1b"/>
              </g>
            </g>
            <g id="Group_61" data-name="Group 61" transform="translate(52.253 24.915)">
              <g id="Group_60" data-name="Group 60">
                <path id="Path_33" data-name="Path 33" d="M56.285,29.134,58.7,27.508l.054.956-1.682,1.059,1.79.885.047.866-2.578-1.322-1.635.09-.045-.817Z" transform="translate(-54.651 -27.508)" fill="#b31b1b"/>
              </g>
            </g>
            <g id="Group_63" data-name="Group 63" transform="translate(0.873 33.693)">
              <g id="Group_62" data-name="Group 62">
                <path id="Path_34" data-name="Path 34" d="M7.248,36.286l.634,2.2-.626.182-.407-1.409-.978.283.385,1.339-.626.182-.385-1.341-1.744.5-.23-.8Z" transform="translate(-3.271 -36.286)" fill="#b31b1b"/>
              </g>
            </g>
            <g id="Group_65" data-name="Group 65" transform="translate(2.699 37.611)">
              <g id="Group_64" data-name="Group 64">
                <path id="Path_35" data-name="Path 35" d="M9.187,41.361a1.932,1.932,0,0,1-1.02,2.753,1.944,1.944,0,0,1-2.821-.867,1.926,1.926,0,0,1,1.041-2.76A1.916,1.916,0,0,1,9.187,41.361Zm-3.256,1.6c.373.761,1.185.71,1.856.379.655-.32,1.176-.953.814-1.689s-1.18-.708-1.834-.389C6.095,41.591,5.559,42.2,5.931,42.96Z" transform="translate(-5.098 -40.204)" fill="#b31b1b"/>
              </g>
            </g>
            <g id="Group_67" data-name="Group 67" transform="translate(5.816 42.024)">
              <g id="Group_66" data-name="Group 66">
                <path id="Path_36" data-name="Path 36" d="M10.946,44.617l.516.647L9.593,46.748c-.554.438-.776.9-.382,1.4s.894.386,1.446-.055l1.87-1.486.516.648L10.972,48.9A1.438,1.438,0,0,1,8.7,48.554a1.442,1.442,0,0,1,.178-2.3Z" transform="translate(-8.215 -44.617)" fill="#b31b1b"/>
              </g>
            </g>
            <g id="Group_69" data-name="Group 69" transform="translate(9.323 45.984)">
              <g id="Group_68" data-name="Group 68">
                <path id="Path_37" data-name="Path 37" d="M14.341,48.577l.788.643-.744,3.389.009.006,1.959-2.393.614.5-2.621,3.2-.782-.639.738-3.4-.01-.006-1.958,2.393-.613-.5Z" transform="translate(-11.721 -48.577)" fill="#b31b1b"/>
              </g>
            </g>
            <g id="Group_71" data-name="Group 71" transform="translate(14.281 49.147)">
              <g id="Group_70" data-name="Group 70">
                <path id="Path_38" data-name="Path 38" d="M18.537,51.74l1.009.5c1.128.569,1.936,1.451,1.2,2.919s-1.927,1.346-3.055.778l-1.009-.5Zm-.826,3.487.412.207A1.419,1.419,0,0,0,19.4,52.9l-.413-.207Z" transform="translate(-16.679 -51.74)" fill="#b31b1b"/>
              </g>
            </g>
            <g id="Group_73" data-name="Group 73" transform="translate(19.858 51.274)">
              <g id="Group_72" data-name="Group 72">
                <path id="Path_39" data-name="Path 39" d="M23.321,53.867l2.352.629-.169.629-1.552-.414-.261.985,1.421.378-.168.629-1.422-.379-.3,1.124,1.565.417-.168.63-2.364-.63Z" transform="translate(-22.256 -53.867)" fill="#b31b1b"/>
              </g>
            </g>
            <g id="Group_75" data-name="Group 75" transform="translate(24.86 52.228)">
              <g id="Group_74" data-name="Group 74">
                <path id="Path_40" data-name="Path 40" d="M27.493,54.821l1.126.064c1.261.07,2.353.561,2.259,2.2s-1.232,2-2.494,1.933l-1.126-.065Zm.626,3.528.461.025a1.418,1.418,0,0,0,.162-2.829l-.46-.025Z" transform="translate(-27.258 -54.821)" fill="#b31b1b"/>
              </g>
            </g>
            <g id="Group_77" data-name="Group 77" transform="translate(31.982 51.733)">
              <g id="Group_76" data-name="Group 76">
                <path id="Path_41" data-name="Path 41" d="M35.082,54.522l.912-.2,2.453,3.7-.9.194-.544-.855-1.635.354-.154,1-.837.18Zm.619.717H35.69l-.225,1.793,1.178-.251Z" transform="translate(-34.38 -54.326)" fill="#b31b1b"/>
              </g>
            </g>
            <g id="Group_79" data-name="Group 79" transform="translate(36.97 53.911)">
              <g id="Group_78" data-name="Group 78">
                <path id="Path_42" data-name="Path 42" d="M39.368,56.785l.777-.281.283.779-.777.282Z" transform="translate(-39.368 -56.504)" fill="#b31b1b"/>
              </g>
            </g>
            <g id="Group_81" data-name="Group 81" transform="translate(38.021 49.296)">
              <g id="Group_80" data-name="Group 80">
                <path id="Path_43" data-name="Path 43" d="M40.419,52.866l.991-.537c1.113-.6,2.3-.759,3.08.684s0,2.351-1.108,2.952l-.992.537Zm2.389,2.669.4-.216a1.419,1.419,0,0,0-1.351-2.492l-.4.219Z" transform="translate(-40.419 -51.89)" fill="#b31b1b"/>
              </g>
            </g>
            <g id="Group_83" data-name="Group 83" transform="translate(43.291 50.566)">
              <g id="Group_82" data-name="Group 82">
                <path id="Path_44" data-name="Path 44" d="M45.689,53.633l.681-.474.472.683-.678.473Z" transform="translate(-45.689 -53.159)" fill="#b31b1b"/>
              </g>
            </g>
            <g id="Group_85" data-name="Group 85" transform="translate(44.821 44.866)">
              <g id="Group_84" data-name="Group 84">
                <path id="Path_45" data-name="Path 45" d="M47.4,47.973l.52-.514,2.906,2.947-.589.582L47.99,48.714l-.1.893-.673-.094Z" transform="translate(-47.219 -47.459)" fill="#b31b1b"/>
              </g>
            </g>
            <g id="Group_87" data-name="Group 87" transform="translate(47.082 41.775)">
              <g id="Group_86" data-name="Group 86">
                <path id="Path_46" data-name="Path 46" d="M51.1,46.789a1.057,1.057,0,0,1-1.18-.017,1.121,1.121,0,0,1-.1-1.7c.433-.584,1.065-.932,1.621-.522a1.089,1.089,0,0,1,.39,1.141l.005,0a1.161,1.161,0,0,1,1.343.007,1.207,1.207,0,0,1,.126,1.856c-.478.644-1.146.962-1.821.459a1.117,1.117,0,0,1-.377-1.217ZM51.3,46a.71.71,0,0,0-.208-.724.482.482,0,0,0-.721.1.54.54,0,0,0,.041.78C50.7,46.36,51.043,46.16,51.3,46Zm1.514,1.192a.545.545,0,0,0-.091-.8.822.822,0,0,0-.989.129.757.757,0,0,0,.235.828A.6.6,0,0,0,52.81,47.188Z" transform="translate(-49.481 -44.369)" fill="#b31b1b"/>
              </g>
            </g>
            <g id="Group_89" data-name="Group 89" transform="translate(49.658 37.776)">
              <g id="Group_88" data-name="Group 88">
                <path id="Path_47" data-name="Path 47" d="M53.314,40.766a1.735,1.735,0,0,0-.471.569c-.317.637.168,1.153.709,1.451l.016-.007a.894.894,0,0,1-.015-.9,1.135,1.135,0,0,1,1.667-.515,1.3,1.3,0,0,1,.721,1.89c-.514,1.027-1.481.829-2.349.394-1-.5-1.946-1.374-1.349-2.568a2.557,2.557,0,0,1,.518-.712Zm1.161,2.4c.349.174.731.18.911-.185.173-.342-.089-.653-.418-.817-.361-.179-.768-.2-.946.157S54.1,42.98,54.475,43.165Z" transform="translate(-52.057 -40.369)" fill="#b31b1b"/>
              </g>
            </g>
            <g id="Group_91" data-name="Group 91" transform="translate(51.031 33.588)">
              <g id="Group_90" data-name="Group 90">
                <path id="Path_48" data-name="Path 48" d="M54.695,36.355l-.452,1.525.841.27a1.691,1.691,0,0,1,.068-.373,1.228,1.228,0,0,1,1.669-.891,1.413,1.413,0,0,1,.887,1.94,4.5,4.5,0,0,1-.388.891l-.706-.23a2.092,2.092,0,0,0,.44-.748.767.767,0,0,0-.447-1.054c-.512-.153-.821.248-.957.7a2.435,2.435,0,0,0-.1.741l-2.118-.675.676-2.271Z" transform="translate(-53.429 -36.181)" fill="#b31b1b"/>
              </g>
            </g>
          </g>
        </g>
      </g>
    </g>
  </g>
</svg>
